<?xml version="1.0" encoding="iso-8859-1"?>
<!-- Generator: Adobe Illustrator 18.1.1, SVG Export Plug-In . SVG Version: 6.00 Build 0)  -->
<svg xmlns="http://www.w3.org/2000/svg" xmlns:xlink="http://www.w3.org/1999/xlink" version="1.1" id="Capa_1" x="0px" y="0px" viewBox="0 0 57.231 57.231" style="enable-background:new 0 0 57.231 57.231;" xml:space="preserve" width="512px" height="512px">
<g>
	<g>
		<path d="M23.945,9.373c-1.652,0-2.992,1.341-2.992,2.992c0,1.654,1.34,2.992,2.992,2.992    c3.656,0,6.921,2.042,8.524,5.333c0.519,1.062,1.583,1.68,2.691,1.68c0.441,0,0.888-0.097,1.309-0.303    c1.486-0.723,2.104-2.514,1.379-4.001C35.235,12.704,29.906,9.373,23.945,9.373z" fill="#006DF0"/>
		<path d="M56.135,50.469l-9.971-9.972c2.952-4.152,4.705-9.213,4.705-14.685    c0-14.025-11.41-25.435-25.435-25.435S0,11.787,0,25.812c0,14.024,11.409,25.434,25.434,25.434c5.859,0,11.245-2.01,15.549-5.351    l9.862,9.862c0.73,0.73,1.689,1.096,2.645,1.096c0.958,0,1.915-0.365,2.645-1.096C57.596,54.298,57.596,51.93,56.135,50.469z     M5.986,25.813c0-10.725,8.726-19.45,19.45-19.45s19.45,8.725,19.45,19.45c0,4.462-1.525,8.566-4.063,11.852    c-0.839,1.085-1.781,2.086-2.827,2.973c-3.392,2.878-7.773,4.625-12.56,4.625C14.711,45.262,5.986,36.537,5.986,25.813z" fill="#006DF0"/>
	</g>
</g>
<g>
</g>
<g>
</g>
<g>
</g>
<g>
</g>
<g>
</g>
<g>
</g>
<g>
</g>
<g>
</g>
<g>
</g>
<g>
</g>
<g>
</g>
<g>
</g>
<g>
</g>
<g>
</g>
<g>
</g>
</svg>
