<?xml version="1.0" encoding="iso-8859-1"?>
<!-- Generator: Adobe Illustrator 18.0.0, SVG Export Plug-In . SVG Version: 6.00 Build 0)  -->
<!DOCTYPE svg PUBLIC "-//W3C//DTD SVG 1.1//EN" "http://www.w3.org/Graphics/SVG/1.1/DTD/svg11.dtd">
<svg version="1.1" id="Capa_1" xmlns="http://www.w3.org/2000/svg" xmlns:xlink="http://www.w3.org/1999/xlink" x="0px" y="0px"
	 viewBox="0 0 58 58" style="enable-background:new 0 0 58 58;" xml:space="preserve">
<g>
	<path style="fill:#4DC95B;" d="M29,1.5c16.016,0,29,11.641,29,26c0,5.292-1.768,10.211-4.796,14.318
		C53.602,46.563,54.746,53.246,58,56.5c0,0-9.943-1.395-16.677-5.462c-0.007,0.003-0.015,0.006-0.022,0.009
		c-2.764-1.801-5.532-3.656-6.105-4.126c-0.3-0.421-0.879-0.548-1.33-0.277c-0.296,0.178-0.483,0.503-0.489,0.848
		c-0.01,0.622,0.005,0.784,5.585,4.421C35.854,52.933,32.502,53.5,29,53.5c-16.016,0-29-11.641-29-26C0,13.141,12.984,1.5,29,1.5z"
		/>
</g>
<g>
</g>
<g>
</g>
<g>
</g>
<g>
</g>
<g>
</g>
<g>
</g>
<g>
</g>
<g>
</g>
<g>
</g>
<g>
</g>
<g>
</g>
<g>
</g>
<g>
</g>
<g>
</g>
<g>
</g>
</svg>
